<svg viewBox="0 0 400 200" xmlns="http://www.w3.org/2000/svg">
  <!-- Circle background -->
  <circle cx="80" cy="100" r="75" fill="#0066FF" opacity="0.1"/>
  
  <!-- House icon -->
  <g transform="translate(30, 60)">
    <rect x="15" y="30" width="35" height="35" fill="#FF9800" rx="2"/>
    <polygon points="17.5,30 32.5,10 47.5,30" fill="#FF6F00"/>
    <rect x="25" y="40" width="6" height="10" fill="#333"/>
    <rect x="36" y="40" width="6" height="10" fill="#333"/>
  </g>
  
  <!-- Building icon -->
  <g transform="translate(65, 50)">
    <rect x="0" y="15" width="30" height="50" fill="#FFB300" rx="2"/>
    <rect x="5" y="20" width="5" height="8" fill="#333"/>
    <rect x="12" y="20" width="5" height="8" fill="#333"/>
    <rect x="19" y="20" width="5" height="8" fill="#333"/>
    <rect x="5" y="32" width="5" height="8" fill="#333"/>
    <rect x="12" y="32" width="5" height="8" fill="#333"/>
    <rect x="19" y="32" width="5" height="8" fill="#333"/>
    <rect x="5" y="44" width="5" height="8" fill="#333"/>
    <rect x="12" y="44" width="5" height="8" fill="#333"/>
    <rect x="19" y="44" width="5" height="8" fill="#333"/>
  </g>
  
  <!-- Pin icon -->
  <g transform="translate(70, 75)">
    <circle cx="8" cy="8" r="8" fill="#FF6B35"/>
    <path d="M 8 16 Q 0 25 0 35 L 16 35 Q 16 25 8 16 Z" fill="#FF6B35"/>
  </g>
  
  <!-- Car icon -->
  <g transform="translate(25, 120)">
    <ellipse cx="25" cy="35" rx="35" ry="8" fill="#E8E8E8"/>
    <rect x="10" y="25" width="30" height="12" fill="#FF3333" rx="3"/>
    <circle cx="17" cy="40" r="6" fill="#333"/>
    <circle cx="33" cy="40" r="6" fill="#333"/>
  </g>
  
  <!-- Text: Buyandsell250 -->
  <text x="150" y="80" font-family="Arial, sans-serif" font-size="48" font-weight="bold" fill="#0066FF">
    Buyandsell
  </text>
  <text x="395" y="80" font-family="Arial, sans-serif" font-size="48" font-weight="bold" fill="#FF6B35">
    250
  </text>
  
  <!-- Tagline -->
  <text x="150" y="105" font-family="Arial, sans-serif" font-size="14" fill="#666">
    Real Estate | Buy | Sell | Rent in Rwanda
  </text>
  
  <!-- Locations -->
  <text x="150" y="125" font-family="Arial, sans-serif" font-size="12" font-weight="bold" fill="#333">
    Gura, Gurisha, Kodesha
  </text>
</svg>